<?xml version="1.0" encoding="utf-8"?>
<!-- Generator: Adobe Illustrator 16.0.2, SVG Export Plug-In . SVG Version: 6.00 Build 0)  -->
<!DOCTYPE svg PUBLIC "-//W3C//DTD SVG 1.1//EN" "http://www.w3.org/Graphics/SVG/1.1/DTD/svg11.dtd">
<svg version="1.1" id="Слой_1" xmlns="http://www.w3.org/2000/svg" xmlns:xlink="http://www.w3.org/1999/xlink" x="0px" y="0px"
	 width="605px" height="382px" viewBox="117.445 106.14 605 382" enable-background="new 117.445 106.14 605 382"
	 xml:space="preserve">
<path fill="#FFFFFF" d="M418.733,480.508c-5.056,0.002-10.112-2.524-12.641-6.314c-15.175-18.951-30.35-37.903-45.523-56.854
	c-54.376-68.226-110.016-137.714-164.391-205.94c-22.763-29.059-45.523-56.854-68.286-85.913c-2.528-1.263-3.792-3.791-3.793-5.054
	c-1.266-1.263-1.266-2.527-0.002-5.056c0-1.264,2.527-1.265,3.791-1.265s3.792,1.262,5.056,1.261
	c88.484,30.295,178.232,61.854,266.715,92.148c12.641,3.786,25.279,3.78,36.652-0.016c90.985-30.372,181.97-60.744,271.691-92.379
	c2.527-0.001,3.791-1.266,6.318-1.267c3.792-0.001,5.057,1.262,3.794,5.054c-1.263,2.528-2.526,5.057-3.789,6.321
	c-16.422,18.965-32.844,39.194-48.001,58.158C609.48,254.193,552.635,323.73,495.792,394.531
	c-21.474,26.55-42.949,51.836-63.159,78.387C428.844,477.974,425.052,480.505,418.733,480.508z"/>
</svg>
