<?xml version="1.0" encoding="utf-8"?>
<!-- Generator: Adobe Illustrator 20.1.0, SVG Export Plug-In . SVG Version: 6.00 Build 0)  -->
<svg version="1.1" id="Слой_1" xmlns="http://www.w3.org/2000/svg" xmlns:xlink="http://www.w3.org/1999/xlink" x="0px" y="0px"
	 viewBox="0 0 29 47.1" style="enable-background:new 0 0 29 47.1;" xml:space="preserve">
<style type="text/css">
	.st0{fill:#232323;}
</style>
<path class="st0" d="M0,23.4c0-0.4,0.2-0.8,0.5-1c1.5-1.2,3-2.4,4.5-3.6c5.4-4.3,10.9-8.7,16.3-13c2.3-1.8,4.5-3.6,6.8-5.4
	c0.1-0.1,0.3-0.2,0.4-0.3C28.6,0,28.8,0,28.9,0C29,0.1,29,0.3,29,0.4c0,0.1-0.1,0.3-0.1,0.4c-2.4,7-4.9,14.1-7.3,21.1
	c-0.3,1-0.3,2,0,2.9c2.4,7.1,4.9,14.3,7.3,21.4c0.1,0.2,0.1,0.3,0.1,0.5c0,0.3-0.1,0.3-0.4,0.3c-0.2-0.1-0.4-0.2-0.5-0.3
	c-1.5-1.3-3.1-2.5-4.6-3.8c-5.6-4.5-11.1-9-16.7-13.5c-2.1-1.7-4.1-3.4-6.2-5C0.3,24.2,0,23.9,0,23.4z"/>
</svg>
