<?xml version="1.0" encoding="utf-8"?>
<!-- Generator: Adobe Illustrator 20.1.0, SVG Export Plug-In . SVG Version: 6.00 Build 0)  -->
<svg version="1.1" id="Слой_1" xmlns="http://www.w3.org/2000/svg" xmlns:xlink="http://www.w3.org/1999/xlink" x="0px" y="0px"
     viewBox="0 0 29 47.1" style="enable-background:new 0 0 29 47.1;" xml:space="preserve">
<style type="text/css">
    .st0{fill:#fff;}
</style>
<path class="st0" d="M29,23.7c0,0.4-0.2,0.8-0.5,1c-1.5,1.2-3,2.4-4.5,3.6c-5.4,4.3-10.9,8.7-16.3,13c-2.3,1.8-4.5,3.6-6.8,5.4
    C0.8,46.9,0.6,47,0.5,47c-0.1,0.1-0.2,0.1-0.4,0C0,47,0,46.8,0,46.7c0-0.1,0.1-0.3,0.1-0.4c2.4-7,4.9-14.1,7.3-21.1
    c0.3-1,0.3-2,0-2.9C5,15.1,2.6,7.9,0.1,0.8C0.1,0.6,0,0.5,0,0.3C0,0,0.1-0.1,0.4,0c0.2,0.1,0.4,0.2,0.5,0.3C2.4,1.6,4,2.9,5.5,4.1
    c5.6,4.5,11.1,9,16.7,13.5c2.1,1.7,4.1,3.4,6.2,5C28.8,22.9,29,23.2,29,23.7z"/>
</svg>
